<svg xmlns="http://www.w3.org/2000/svg" xmlns:xlink="http://www.w3.org/1999/xlink" viewBox="0 0 854.33 986.5"><defs><style>.cls-1{fill:url(#radial-gradient);}.cls-2{fill:#59d2ab;}.cls-3{fill:#fff;}</style><radialGradient id="radial-gradient" cx="589.27" cy="935.83" r="1196.19" gradientTransform="translate(-277.34 2004.43) rotate(-115.6) scale(1 1.33)" gradientUnits="userSpaceOnUse"><stop offset="0.15" stop-color="#4aafa6"/><stop offset="0.23" stop-color="#4cb5a7"/><stop offset="0.62" stop-color="#57cdaa"/><stop offset="0.86" stop-color="#5bd6ab"/></radialGradient></defs><g id="Layer_2" data-name="Layer 2"><g id="Layer_1-2" data-name="Layer 1"><polygon class="cls-1" points="12 732.95 12 253.55 427.17 13.86 842.33 253.55 842.33 732.95 427.17 972.64 12 732.95"/><path class="cls-2" d="M427.17,27.71,830.33,260.48V726L427.17,958.79,24,726V260.48L427.17,27.71m0-27.71L0,246.62V739.87L427.17,986.5,854.33,739.87V246.62L427.17,0Z"/><path class="cls-3" d="M679.21,386.91a250.82,250.82,0,0,0-40.75-137.68V215.9h-26c-2.36-2.56-4.76-5.08-7.23-7.55a252.5,252.5,0,0,0-357.12,0c-2.47,2.47-4.87,5-7.23,7.55h-26v33.33a253,253,0,0,0,0,275.36V639.43H638.46V524.59A250.85,250.85,0,0,0,679.21,386.91Zm-10,0a241.22,241.22,0,0,1-30.75,118.41V268.5A241.19,241.19,0,0,1,669.21,386.91Zm-40.75-86.48H467.65a265.38,265.38,0,0,0,65.29-16.9,221.51,221.51,0,0,0,78.78-53.41,246.05,246.05,0,0,1,16.74,22.09ZM426.66,285.3a25.89,25.89,0,1,1,25.89-25.89A25.92,25.92,0,0,1,426.66,285.3Zm102.52-11c-27.16,11-57.14,17.2-89.28,18.5a35.88,35.88,0,0,0-.41-66.86H601.91A211.93,211.93,0,0,1,529.18,274.26ZM390.76,259.41a35.94,35.94,0,0,0,22.58,33.32c-31.79-1.38-61.46-7.58-88.37-18.47a212.12,212.12,0,0,1-72.73-48.36H413.82A36,36,0,0,0,390.76,259.41Zm-69.54,24.12a265.27,265.27,0,0,0,65.29,16.9H224.92V252.21A244.4,244.4,0,0,1,242,229.69,221.54,221.54,0,0,0,321.22,283.53Zm-96.3,26.9H383.41l8,113.24q.15,2.25.27,4.53A45.15,45.15,0,0,1,388,445.06L319.47,604.57a245.27,245.27,0,0,1-94.55-83ZM391.86,461.36l-1.05,165.45a239.84,239.84,0,0,1-62.28-18Zm8.95,166.7L402,442.94c0-4.93-.08-9.91-.33-14.86,0-.08,0-.16,0-.24v-.11h0c-.08-1.59-.17-3.18-.29-4.76l-7.9-112.54h66.49L452.1,421.56c-.46,6.58-.68,13.25-.64,19.83l1.05,186.68a245.45,245.45,0,0,1-51.7,0Zm60.76-168,63.67,148.57a239.82,239.82,0,0,1-62.74,18.18ZM534.3,604.38,465.43,443.7a45.18,45.18,0,0,1-3.64-16.6c.08-1.62.18-3.23.29-4.83L470,310.43H628.46V521.6a245.31,245.31,0,0,1-94.16,82.78ZM628.46,225.9V235q-3.5-4.62-7.22-9.11ZM255.2,215.42a242.51,242.51,0,0,1,343,0l.47.48H254.73ZM224.92,225.9h7.22q-3.72,4.48-7.22,9.11Zm-40.75,161A241.19,241.19,0,0,1,214.92,268.5V505.32A241.22,241.22,0,0,1,184.17,386.91Zm40.75,242.52V538.81a256.87,256.87,0,0,0,23.21,26.66,251.11,251.11,0,0,0,107.85,64Zm403.54,0H497.4a251.11,251.11,0,0,0,107.85-64,256.87,256.87,0,0,0,23.21-26.66Z"/><path class="cls-3" d="M215.12,686.25h14.65l34.35,52.82V686.25h15.27v80.27H264.7l-34.31-52.66v52.66H215.12Z"/><path class="cls-3" d="M305.51,686.25H320.4l18.6,56,18.78-56h14.88l13.46,80.27H371.35l-8.61-50.69-17.05,50.69H332.22l-16.9-50.69-8.81,50.69H291.62Z"/><path class="cls-3" d="M440.46,684.23h14.9v82.29h-14.9v-6.28a29.1,29.1,0,0,1-8.74,6,24.67,24.67,0,0,1-9.51,1.82q-11.5,0-19.9-8.92t-8.39-22.18q0-13.74,8.12-22.53a25.88,25.88,0,0,1,19.73-8.79,25.21,25.21,0,0,1,10,2,27.47,27.47,0,0,1,8.66,6.06Zm-15.65,35.14a15.05,15.05,0,0,0-11.48,4.89,19.5,19.5,0,0,0,.08,25.18,15.07,15.07,0,0,0,11.45,5,15.33,15.33,0,0,0,11.64-4.88q4.62-4.89,4.62-12.8,0-7.74-4.62-12.55A15.54,15.54,0,0,0,424.81,719.37Z"/><path class="cls-3" d="M516.47,707.15h14.9v59.37h-14.9v-6.28a29.14,29.14,0,0,1-8.75,6,24.6,24.6,0,0,1-9.51,1.82q-11.49,0-19.89-8.92t-8.39-22.18q0-13.74,8.12-22.53a25.86,25.86,0,0,1,19.73-8.79,25.13,25.13,0,0,1,10,2,27.4,27.4,0,0,1,8.67,6.06Zm-15.66,12.22a15,15,0,0,0-11.47,4.89,17.57,17.57,0,0,0-4.57,12.52,17.78,17.78,0,0,0,4.65,12.66,15,15,0,0,0,11.44,5,15.33,15.33,0,0,0,11.64-4.88q4.62-4.89,4.62-12.8,0-7.74-4.62-12.55A15.54,15.54,0,0,0,500.81,719.37Z"/><path class="cls-3" d="M548.22,685.27h14.9v21.88H572V720h-8.84v46.55h-14.9V720h-7.63V707.15h7.63Z"/><path class="cls-3" d="M623.74,707.15h14.9v59.37h-14.9v-6.28a29.14,29.14,0,0,1-8.75,6,24.6,24.6,0,0,1-9.51,1.82q-11.49,0-19.89-8.92t-8.39-22.18q0-13.74,8.12-22.53a25.86,25.86,0,0,1,19.73-8.79,25.13,25.13,0,0,1,10,2,27.4,27.4,0,0,1,8.67,6.06Zm-15.66,12.22a15,15,0,0,0-11.47,4.89A17.57,17.57,0,0,0,592,736.78a17.78,17.78,0,0,0,4.65,12.66,15.06,15.06,0,0,0,11.45,5,15.32,15.32,0,0,0,11.63-4.88q4.62-4.89,4.63-12.8,0-7.74-4.63-12.55A15.52,15.52,0,0,0,608.08,719.37Z"/></g></g></svg>